# xmcd
#
# Track frame offsets:
#	150
#	22382
#	46145
#	67180
#	88777
#	117347
#	137862
#	156740
#	178380
#	202677
#
# Disc length: 3020 seconds
#
# Revision: 0
# Processed by: cddbd v1.5PL3 Copyright (c) Steve Scherf et al.
# Submitted via: dBpowerAMP V4.0
#
DISCID=9a0bca0a
DTITLE=Glenn Monroig - Grandes Exitos 2
DYEAR=1900
DGENRE=
TTITLE0=Causa Perdida
TTITLE1=Sin tu cariño
TTITLE2=Y entonces volviste a herir
TTITLE3=El vicio que no puedo romper
TTITLE4=Donde quiera que estes
TTITLE5=Corazon
TTITLE6=Vete ya
TTITLE7=Tal vez
TTITLE8=Donde estara
TTITLE9=Hasta que regreses
EXTD=
EXTT0=
EXTT1=
EXTT2=
EXTT3=
EXTT4=
EXTT5=
EXTT6=
EXTT7=
EXTT8=
EXTT9=
PLAYORDER=
